<svg width="24" height="24" viewBox="0 0 24 24" fill="none" xmlns="http://www.w3.org/2000/svg">
<path fill-rule="evenodd" clip-rule="evenodd" d="M17.6983 2.59132C17.9897 2.5315 18.2923 2.55965 18.5676 2.67219C18.8429 2.78473 19.0786 2.97658 19.2446 3.22337C19.4106 3.47015 19.4995 3.76072 19.5 4.05816L19.5 4.05942L19.5 19.5C19.5 19.8979 19.342 20.2794 19.0607 20.5607C18.7794 20.842 18.3979 21 18 21H2.55942L2.55816 21C2.26072 20.9995 1.97015 20.9106 1.72337 20.7446C1.47658 20.5786 1.28473 20.3429 1.17219 20.0676C1.05965 19.7923 1.0315 19.4897 1.09132 19.1983C1.15092 18.9081 1.29513 18.642 1.50573 18.4337L16.9337 3.00572C17.142 2.79512 17.4081 2.65092 17.6983 2.59132ZM17.996 4.06475L2.5607 19.5H18L18 4.06067L17.996 4.06475Z" fill="white"/>
<path fill-rule="evenodd" clip-rule="evenodd" d="M11.25 9C11.6642 9 12 9.33579 12 9.75V20.25C12 20.6642 11.6642 21 11.25 21C10.8358 21 10.5 20.6642 10.5 20.25V9.75C10.5 9.33579 10.8358 9 11.25 9Z" fill="white"/>
</svg>
