<svg width="40" height="40" viewBox="0 0 40 40" fill="none" xmlns="http://www.w3.org/2000/svg">
<path d="M20.0008 31.6664V19.9997M20.4866 31.8075L32.1174 35.7011C33.0289 36.0063 33.4847 36.1588 33.7657 36.0494C34.0098 35.9543 34.1949 35.75 34.2656 35.4978C34.347 35.2074 34.1505 34.7688 33.7574 33.8916L21.2767 6.037C20.8923 5.17917 20.7001 4.75025 20.4324 4.61735C20.1998 4.50188 19.9267 4.50145 19.6937 4.61616C19.4256 4.74821 19.232 5.1765 18.8449 6.0331L6.25406 33.8932C5.8579 34.7698 5.65982 35.2081 5.74037 35.4988C5.81032 35.7513 5.99494 35.9562 6.23881 36.052C6.51963 36.1623 6.97612 36.0107 7.88909 35.7077L19.6433 31.8064C19.7998 31.7544 19.8781 31.7285 19.9581 31.7182C20.0291 31.7091 20.101 31.7092 20.172 31.7185C20.252 31.729 20.3302 31.7551 20.4866 31.8075Z" stroke="url(#paint0_linear_1107_166)" stroke-width="4" stroke-linecap="round" stroke-linejoin="round"/>
<defs>
<linearGradient id="paint0_linear_1107_166" x1="34.2838" y1="22.7887" x2="5.72266" y2="22.7887" gradientUnits="userSpaceOnUse">
<stop stop-color="#FF9D42"/>
<stop offset="0.509079" stop-color="#FF6069"/>
<stop offset="1" stop-color="#B16CEA"/>
</linearGradient>
</defs>
</svg>
