<svg width="24" height="24" viewBox="0 0 24 24" fill="none" xmlns="http://www.w3.org/2000/svg">
<path fill-rule="evenodd" clip-rule="evenodd" d="M7.5 21.75C7.5 21.3358 7.83579 21 8.25 21H15.75C16.1642 21 16.5 21.3358 16.5 21.75C16.5 22.1642 16.1642 22.5 15.75 22.5H8.25C7.83579 22.5 7.5 22.1642 7.5 21.75Z" fill="white"/>
<path fill-rule="evenodd" clip-rule="evenodd" d="M12 12.75C12.4142 12.75 12.75 13.0858 12.75 13.5V18.75C12.75 19.1642 12.4142 19.5 12 19.5C11.5858 19.5 11.25 19.1642 11.25 18.75V13.5C11.25 13.0858 11.5858 12.75 12 12.75Z" fill="white"/>
<path fill-rule="evenodd" clip-rule="evenodd" d="M8.46967 9.96967C8.76256 9.67678 9.23744 9.67678 9.53033 9.96967L12 12.4393L14.4697 9.96967C14.7626 9.67678 15.2374 9.67678 15.5303 9.96967C15.8232 10.2626 15.8232 10.7374 15.5303 11.0303L12.5303 14.0303C12.2374 14.3232 11.7626 14.3232 11.4697 14.0303L8.46967 11.0303C8.17678 10.7374 8.17678 10.2626 8.46967 9.96967Z" fill="white"/>
<path fill-rule="evenodd" clip-rule="evenodd" d="M15.8177 4.18154C14.6486 3.37968 13.2568 2.96622 11.8396 2.99982C8.18217 3.08409 5.23307 6.13092 5.24995 9.79345L5.24995 9.79445C5.25328 10.8117 5.48808 11.8148 5.93656 12.7278C6.38503 13.6408 7.03542 14.4398 7.83846 15.0642L7.37808 15.6563L7.8422 15.0671C8.2003 15.3492 8.49031 15.7083 8.69072 16.1178C8.89114 16.5272 8.99682 16.9765 8.99994 17.4324L8.99998 17.4375L8.99996 18H15L15 17.4361C15.0008 16.9758 15.107 16.5219 15.3102 16.1089C15.513 15.6969 15.807 15.3367 16.17 15.0555C17.284 14.1801 18.0943 12.9765 18.4862 11.615C18.8783 10.2527 18.8316 8.80148 18.3526 7.46723C17.8736 6.13299 16.9867 4.98341 15.8177 4.18154ZM6.91562 16.2467C5.93385 15.4828 5.13866 14.5057 4.59021 13.3891C4.04138 12.2718 3.75404 11.0442 3.74996 9.79936L4.49996 9.7969L3.74997 9.80036C3.74996 9.80002 3.74996 9.79969 3.74996 9.79936C3.72988 5.3249 7.32472 1.60355 11.8044 1.50023C11.8043 1.50023 11.8045 1.50023 11.8044 1.50023C13.5363 1.45928 15.2375 1.9646 16.6662 2.94457C18.095 3.92463 19.179 5.32967 19.7644 6.96041C20.3498 8.59116 20.407 10.3648 19.9277 12.0299C19.4485 13.6949 18.4571 15.1668 17.0944 16.2368L17.0899 16.2403C16.9067 16.3819 16.7583 16.5635 16.656 16.7713C16.5539 16.9788 16.5005 17.207 16.5 17.4383C16.5 17.4381 16.5 17.4385 16.5 17.4383V18C16.5 18.3978 16.3419 18.7794 16.0606 19.0607C15.7793 19.342 15.3978 19.5 15 19.5H8.99996C8.60213 19.5 8.2206 19.342 7.9393 19.0607C7.65799 18.7794 7.49996 18.3979 7.49996 18V17.4403C7.49804 17.2104 7.44456 16.9838 7.34346 16.7772C7.24232 16.5706 7.09611 16.3893 6.91562 16.2467Z" fill="white"/>
</svg>
