<svg width="40" height="40" viewBox="0 0 40 40" fill="none" xmlns="http://www.w3.org/2000/svg">
<path d="M23.4161 10C25.044 10.3176 26.5401 11.1138 27.7129 12.2866C28.8857 13.4594 29.6819 14.9554 29.9995 16.5833M23.4161 3.33333C26.7983 3.70906 29.9521 5.22362 32.3599 7.62834C34.7676 10.0331 36.2862 13.185 36.6661 16.5667M17.0444 23.1051C15.0418 21.1025 13.4605 18.8381 12.3005 16.422C12.2007 16.2142 12.1508 16.1103 12.1125 15.9788C11.9763 15.5116 12.0741 14.9378 12.3575 14.5421C12.4372 14.4307 12.5325 14.3355 12.723 14.145C13.3057 13.5623 13.597 13.271 13.7875 12.978C14.5058 11.8732 14.5058 10.4489 13.7875 9.34405C13.597 9.05109 13.3057 8.75975 12.723 8.17707L12.3982 7.85229C11.5125 6.96655 11.0696 6.52368 10.594 6.28311C9.64805 5.80466 8.53094 5.80466 7.585 6.28311C7.10937 6.52368 6.6665 6.96655 5.78076 7.85229L5.51804 8.11501C4.63533 8.99772 4.19398 9.43907 3.8569 10.0391C3.48286 10.705 3.21393 11.7391 3.2162 12.5028C3.21825 13.1911 3.35175 13.6614 3.61877 14.6022C5.05372 19.6578 7.76117 24.4284 11.7411 28.4084C15.7211 32.3884 20.4917 35.0958 25.5474 36.5308C26.4881 36.7978 26.9585 36.9313 27.6467 36.9334C28.4104 36.9356 29.4446 36.6667 30.1104 36.2927C30.7105 35.9556 31.1518 35.5142 32.0345 34.6315L32.2973 34.3688C33.183 33.4831 33.6259 33.0402 33.8664 32.5646C34.3449 31.6186 34.3449 30.5015 33.8664 29.5556C33.6259 29.0799 33.183 28.6371 32.2973 27.7513L31.9725 27.4266C31.3898 26.8439 31.0985 26.5525 30.8055 26.3621C29.7007 25.6437 28.2764 25.6437 27.1716 26.3621C26.8786 26.5525 26.5873 26.8439 26.0046 27.4266C25.8141 27.6171 25.7188 27.7123 25.6075 27.7921C25.2117 28.0754 24.638 28.1733 24.1707 28.037C24.0392 27.9987 23.9353 27.9488 23.7275 27.8491C21.3115 26.6891 19.0471 25.1077 17.0444 23.1051Z" stroke="url(#paint0_linear_1107_176)" stroke-width="4" stroke-linecap="round" stroke-linejoin="round"/>
<defs>
<linearGradient id="paint0_linear_1107_176" x1="36.6661" y1="22.7734" x2="3.21619" y2="22.7734" gradientUnits="userSpaceOnUse">
<stop stop-color="#FF9D42"/>
<stop offset="0.509079" stop-color="#FF6069"/>
<stop offset="1" stop-color="#B16CEA"/>
</linearGradient>
</defs>
</svg>
