<svg width="24" height="24" viewBox="0 0 24 24" fill="none" xmlns="http://www.w3.org/2000/svg">
<path fill-rule="evenodd" clip-rule="evenodd" d="M7.65536 11.0947C7.94825 11.3876 7.94825 11.8624 7.65536 12.1553L4.74819 15.0625C4.60835 15.2019 4.49739 15.3674 4.42169 15.5498C4.34598 15.7321 4.30701 15.9276 4.30701 16.125C4.30701 16.3224 4.34598 16.5179 4.42169 16.7002C4.49739 16.8826 4.60835 17.0481 4.74819 17.1875L4.74911 17.1884L6.81253 19.2518C6.95189 19.3917 7.11748 19.5026 7.2998 19.5783C7.48213 19.6541 7.67761 19.693 7.87503 19.693C8.07245 19.693 8.26793 19.6541 8.45026 19.5783C8.63259 19.5026 8.79818 19.3917 8.93753 19.2518L11.8447 16.3447C12.1376 16.0518 12.6125 16.0518 12.9054 16.3447C13.1983 16.6376 13.1983 17.1124 12.9054 17.4053L10 20.3107C9.99989 20.3108 10.0002 20.3105 10 20.3107C9.72141 20.5901 9.38995 20.8123 9.02549 20.9637C8.66083 21.1151 8.26987 21.193 7.87503 21.193C7.48019 21.193 7.08923 21.1151 6.72458 20.9637C6.36011 20.8123 6.02909 20.5906 5.75047 20.3111C5.75032 20.311 5.75061 20.3112 5.75047 20.3111L3.68937 18.25C3.6892 18.2498 3.68955 18.2502 3.68937 18.25C3.40994 17.9714 3.18769 17.6399 3.03637 17.2755C2.88495 16.9108 2.80701 16.5198 2.80701 16.125C2.80701 15.7302 2.88495 15.3392 3.03637 14.9745C3.18769 14.6101 3.40941 14.2791 3.68884 14.0005C3.68902 14.0004 3.6892 14.0002 3.68937 14L6.5947 11.0947C6.88759 10.8018 7.36247 10.8018 7.65536 11.0947Z" fill="white"/>
<path fill-rule="evenodd" clip-rule="evenodd" d="M5.78033 18.2197C6.07322 18.5126 6.07322 18.9874 5.78033 19.2803L2.78033 22.2803C2.48744 22.5732 2.01256 22.5732 1.71967 22.2803C1.42678 21.9874 1.42678 21.5126 1.71967 21.2197L4.71967 18.2197C5.01256 17.9268 5.48744 17.9268 5.78033 18.2197Z" fill="white"/>
<path fill-rule="evenodd" clip-rule="evenodd" d="M22.2803 1.71967C22.5732 2.01256 22.5732 2.48744 22.2803 2.78033L19.2803 5.78033C18.9874 6.07322 18.5126 6.07322 18.2197 5.78033C17.9268 5.48744 17.9268 5.01256 18.2197 4.71967L21.2197 1.71967C21.5126 1.42678 21.9874 1.42678 22.2803 1.71967Z" fill="white"/>
<path fill-rule="evenodd" clip-rule="evenodd" d="M14.0303 12.9697C14.3232 13.2626 14.3232 13.7374 14.0303 14.0303L11.7803 16.2803C11.4874 16.5732 11.0126 16.5732 10.7197 16.2803C10.4268 15.9874 10.4268 15.5126 10.7197 15.2197L12.9697 12.9697C13.2626 12.6768 13.7374 12.6768 14.0303 12.9697Z" fill="white"/>
<path fill-rule="evenodd" clip-rule="evenodd" d="M11.0303 9.96967C11.3232 10.2626 11.3232 10.7374 11.0303 11.0303L8.78033 13.2803C8.48744 13.5732 8.01256 13.5732 7.71967 13.2803C7.42678 12.9874 7.42678 12.5126 7.71967 12.2197L9.96967 9.96967C10.2626 9.67678 10.7374 9.67678 11.0303 9.96967Z" fill="white"/>
<path fill-rule="evenodd" clip-rule="evenodd" d="M14.9745 3.03637C15.3392 2.88495 15.7302 2.80701 16.125 2.80701C16.5198 2.80701 16.9108 2.88495 17.2755 3.03637C17.6399 3.18769 17.9709 3.40941 18.2495 3.68884C18.2493 3.68866 18.2496 3.68902 18.2495 3.68884L20.3107 5.75003C20.3105 5.74989 20.3108 5.75018 20.3107 5.75003C20.5901 6.02865 20.8123 6.36011 20.9637 6.72458C21.1151 7.08923 21.193 7.48019 21.193 7.87503C21.193 8.26987 21.1151 8.66083 20.9637 9.02549C20.8123 9.38995 20.5906 9.72097 20.3111 9.99959C20.311 9.99974 20.3112 9.99945 20.3111 9.99959L17.4053 12.9054C17.1124 13.1983 16.6376 13.1983 16.3447 12.9054C16.0518 12.6125 16.0518 12.1376 16.3447 11.8447L19.2518 8.93753C19.3917 8.79818 19.5026 8.63259 19.5783 8.45026C19.6541 8.26793 19.693 8.07245 19.693 7.87503C19.693 7.67761 19.6541 7.48213 19.5783 7.2998C19.5026 7.11748 19.3917 6.95189 19.2518 6.81253L17.1875 4.74819C17.0481 4.60835 16.8826 4.49739 16.7002 4.42169C16.5179 4.34598 16.3224 4.30701 16.125 4.30701C15.9276 4.30701 15.7321 4.34598 15.5498 4.42169C15.3674 4.49739 15.2019 4.60835 15.0625 4.74819L12.1553 7.65536C11.8624 7.94825 11.3876 7.94825 11.0947 7.65536C10.8018 7.36247 10.8018 6.88759 11.0947 6.5947L14 3.68937C14.0002 3.6892 14.0004 3.68902 14.0005 3.68884C14.2791 3.40941 14.6101 3.18769 14.9745 3.03637Z" fill="white"/>
<path fill-rule="evenodd" clip-rule="evenodd" d="M10.3447 5.84467C10.6376 5.55178 11.1124 5.55178 11.4053 5.84467L18.1553 12.5947C18.4482 12.8876 18.4482 13.3624 18.1553 13.6553C17.8624 13.9482 17.3876 13.9482 17.0947 13.6553L10.3447 6.90533C10.0518 6.61244 10.0518 6.13756 10.3447 5.84467Z" fill="white"/>
<path fill-rule="evenodd" clip-rule="evenodd" d="M5.84467 10.3447C6.13756 10.0518 6.61244 10.0518 6.90533 10.3447L13.6553 17.0947C13.9482 17.3876 13.9482 17.8624 13.6553 18.1553C13.3624 18.4482 12.8876 18.4482 12.5947 18.1553L5.84467 11.4053C5.55178 11.1124 5.55178 10.6376 5.84467 10.3447Z" fill="white"/>
</svg>
