<svg width="36" height="32" viewBox="0 0 36 32" fill="none" xmlns="http://www.w3.org/2000/svg">
<path d="M21.8337 7.02804C21.8337 5.03427 22.5152 3.36449 23.8783 2.01869C25.2414 0.6729 26.9452 3.0231e-06 28.9899 3.20185e-06C30.9371 3.37209e-06 32.5923 0.772588 33.9554 2.31776C35.3185 3.86293 36 5.80686 36 8.14953C36 9.84424 35.6349 11.7134 34.9047 13.757C34.1258 15.8006 33.1278 17.8692 31.9108 19.9626C30.645 22.0561 29.2333 24.1246 27.6755 26.1682C26.069 28.2617 24.4625 30.2056 22.856 32L20.8844 30.3551C23.075 27.7134 24.9006 25.0467 26.3611 22.3551C27.8215 19.6636 28.6978 17.0218 28.9899 14.4299C27.0426 14.2804 25.3631 13.5327 23.9513 12.1869C22.5396 10.8411 21.8337 9.1215 21.8337 7.02804ZM0.876265 7.02804C0.876265 5.03427 1.55781 3.36449 2.92089 2.01869C4.28397 0.672898 5.98783 1.19095e-06 8.03245 1.3697e-06C9.97972 1.53993e-06 11.6349 0.772587 12.998 2.31776C14.3611 3.86293 15.0426 5.80685 15.0426 8.14953C15.0426 9.84424 14.6775 11.7134 13.9473 13.757C13.1684 15.8006 12.1704 17.8692 10.9533 19.9626C9.68762 22.0561 8.27586 24.1246 6.71805 26.1682C5.11156 28.2617 3.50507 30.2056 1.89857 32L-3.6709e-06 30.3551C2.19067 27.7134 4.01622 25.0467 5.47667 22.3551C6.88844 19.6635 7.74036 17.0218 8.03245 14.4299C6.08519 14.2804 4.40568 13.5327 2.99391 12.1869C1.58215 10.8411 0.876265 9.1215 0.876265 7.02804Z" fill="#161513" fill-opacity="0.8"/>
</svg>
