<svg width="40" height="40" viewBox="0 0 40 40" fill="none" xmlns="http://www.w3.org/2000/svg">
<path d="M14.9993 23.3333C14.9993 23.3333 17.1868 25.8333 20.8327 25.8333C24.4785 25.8333 26.666 23.3333 26.666 23.3333M25.416 15H25.4327M16.2493 15H16.266M20.8327 33.3333C28.6567 33.3333 34.9993 26.9907 34.9993 19.1667C34.9993 11.3426 28.6567 5 20.8327 5C13.0086 5 6.666 11.3426 6.666 19.1667C6.666 20.75 6.92575 22.2727 7.40495 23.6944C7.58528 24.2294 7.67545 24.4969 7.69171 24.7024C7.70777 24.9053 7.69563 25.0476 7.64542 25.2449C7.59458 25.4447 7.48233 25.6525 7.25782 26.068L4.53173 31.1139C4.14288 31.8337 3.94845 32.1935 3.99196 32.4713C4.02986 32.7132 4.17225 32.9262 4.38129 33.0537C4.6213 33.2001 5.02817 33.1581 5.8419 33.074L14.3769 32.1917C14.6354 32.165 14.7646 32.1516 14.8824 32.1561C14.9983 32.1605 15.0801 32.1714 15.1931 32.1975C15.3079 32.224 15.4524 32.2796 15.7413 32.3909C17.3213 32.9996 19.038 33.3333 20.8327 33.3333ZM26.2493 15C26.2493 15.4602 25.8762 15.8333 25.416 15.8333C24.9558 15.8333 24.5827 15.4602 24.5827 15C24.5827 14.5398 24.9558 14.1667 25.416 14.1667C25.8762 14.1667 26.2493 14.5398 26.2493 15ZM17.0827 15C17.0827 15.4602 16.7096 15.8333 16.2493 15.8333C15.7891 15.8333 15.416 15.4602 15.416 15C15.416 14.5398 15.7891 14.1667 16.2493 14.1667C16.7096 14.1667 17.0827 14.5398 17.0827 15Z" stroke="url(#paint0_linear_1107_186)" stroke-width="4" stroke-linecap="round" stroke-linejoin="round"/>
<defs>
<linearGradient id="paint0_linear_1107_186" x1="34.9993" y1="21.3929" x2="3.98596" y2="21.3929" gradientUnits="userSpaceOnUse">
<stop stop-color="#FF9D42"/>
<stop offset="0.509079" stop-color="#FF6069"/>
<stop offset="1" stop-color="#B16CEA"/>
</linearGradient>
</defs>
</svg>
