<svg width="169" height="128" viewBox="0 0 169 128" fill="none" xmlns="http://www.w3.org/2000/svg">
<path d="M130.118 0.902222L118.085 23.1252L136.225 14.8938L130.118 0.902222Z" fill="#FF671D"/>
<path d="M11.3766 27.2952L4.35547 41.552L25.9317 39.8375L11.3766 27.2952Z" fill="#FF671D"/>
<path d="M77.2327 118.6L90.2743 126.498L87.3131 101.387L77.2327 118.6Z" fill="#FF671D"/>
<path d="M135.803 75.7238L168.67 43.6518L117.085 28.8863L121.119 41.2617L102.456 1.44275L77.3202 25.0575L21.5142 1.44275L41.2485 58.9475L0.304932 97.4164L44.862 95.5578L44.312 127.098L88.4209 93.9609L122.365 123.794L117.823 92.3875L148.825 97.198L135.803 75.7264L135.803 75.7238ZM128.345 63.4265L122.661 54.0545L124.24 50.8348L128.345 63.4265Z" fill="#FF671D"/>
<path d="M98.7756 64.4445L16.898 83.8259L15.4268 47.4172L97.3067 28.3721L98.7756 64.4445Z" fill="#221C35"/>
<path d="M152.847 80.0017L61.9663 102.015L61.2061 65.8484L150.473 43.9575L152.847 80.0017Z" fill="#221C35"/>
<path d="M135.017 43.0971L102.699 51.2109L102.166 31.0345L133.708 23.4828L135.017 43.0971Z" fill="#221C35"/>
<path d="M57.0367 98.3888L26.5608 105.905V85.7359L56.7059 78.4617L57.0367 98.3888Z" fill="#221C35"/>
<path d="M46.9374 91.1498L44.4971 89.4189L44.4877 89.4306L38.5559 85.2373L36.8289 87.6832L42.7654 91.8789L38.5864 97.8196L41.0267 99.5506L45.2081 93.6075H45.2104L46.9374 91.1616L46.9327 91.1569L46.9374 91.1498Z" fill="#FFC629"/>
<path d="M123.125 36.5612L120.685 34.8302L120.675 34.842L114.741 30.6487L113.014 33.0946L118.951 37.2903L114.774 43.231L117.214 44.9619L121.396 39.0189L123.125 36.573L123.118 36.5682L123.125 36.5612Z" fill="#FFC629"/>
<path d="M31.0989 66.0155L31.2036 69.2718C31.1808 70.2521 31.0133 71.1702 30.7244 71.9877C30.4128 72.713 30.0329 73.4223 29.4397 74.0536C28.8306 74.7535 28.0018 75.2144 26.9295 75.4743C25.8578 75.7342 25.0018 75.6815 24.3246 75.2932C23.693 74.959 23.2767 74.4428 23.0062 73.8584C22.6211 73.2041 22.4285 72.4059 22.3827 71.4096L21.9937 57.4346C21.9932 56.4919 22.1375 55.6124 22.4496 54.7568C22.7607 54.0314 23.1028 53.2989 23.696 52.6676C24.2892 52.0364 25.1339 51.5068 26.2368 51.2393C27.3394 50.9719 28.1794 51.0933 28.8111 51.4277C29.443 51.7619 29.8973 52.3017 30.1678 52.8859C30.5451 53.5093 30.7378 54.3076 30.8145 55.2963L30.8887 58.5601L27.7953 59.3099L27.7207 56.046C27.7031 55.4331 27.5226 54.9567 27.1657 54.686C27.0064 54.5623 26.7389 54.5293 26.4022 54.6109C25.82 54.7521 25.5563 55.2709 25.4073 55.7292C25.3674 55.9668 25.3116 56.2725 25.301 56.6323L25.6905 70.6077C25.7391 71.213 25.9191 71.6895 26.2455 71.9677C26.4053 72.0914 26.6113 72.1392 26.8868 72.0724C27.5912 71.9016 27.8699 71.444 28.0039 70.9242C28.0515 70.7177 28.1074 70.4118 28.1102 70.0209L28.0053 66.7645L31.0989 66.0155Z" fill="white"/>
<path d="M41.7985 66.7024C41.7758 67.6827 41.6084 68.6008 41.3194 69.4186C41.0078 70.1439 40.6281 70.853 40.0347 71.4844C39.4255 72.1843 38.5968 72.6453 37.5247 72.9052C36.4526 73.165 35.5973 73.1124 34.9201 72.7243C34.2879 72.3899 33.8717 71.8736 33.6011 71.2895C33.2163 70.6352 33.0234 69.837 32.9781 68.841L32.5886 54.8657C32.5882 53.9231 32.7325 53.0435 33.0445 52.1879C33.3562 51.4626 33.698 50.73 34.291 50.0988C34.8846 49.4675 35.7289 48.9379 36.8317 48.6705C37.9346 48.4031 38.7744 48.5245 39.4061 48.8589C40.038 49.1933 40.4922 49.7328 40.7628 50.317C41.1401 50.9405 41.3327 51.7387 41.4095 52.7274L41.7985 66.7024ZM38.1014 53.5291C38.0761 52.8857 37.9034 52.4398 37.6073 52.1543C37.4479 52.0306 37.2114 51.9903 36.9355 52.0571C36.3533 52.1982 36.0896 52.7171 35.9715 53.1681C35.9084 53.4438 35.8831 53.7422 35.8957 54.064L36.2852 68.039C36.2726 68.6592 36.4526 69.1356 36.7794 69.4141C36.9387 69.5378 37.1448 69.5856 37.4205 69.5188C38.0026 69.3776 38.2812 68.9202 38.3846 68.4078C38.4316 68.2013 38.4879 67.8953 38.4909 67.5047L38.1014 53.5291Z" fill="white"/>
<path d="M52.6393 64.0755C52.6165 65.0557 52.449 65.9739 52.1597 66.7916C51.8488 67.5169 51.4686 68.226 50.8755 68.8574C50.2663 69.5573 49.4375 70.0183 48.3652 70.2782C47.2936 70.5381 46.4376 70.4854 45.7604 70.0973C45.1285 69.7629 44.7125 69.2467 44.4419 68.6625C44.0569 68.0082 43.8642 67.21 43.8185 66.214L43.429 52.2387C43.4285 51.2963 43.5728 50.4165 43.8853 49.5611C44.1962 48.8358 44.5381 48.1032 45.1318 47.4718C45.725 46.8403 46.5697 46.3109 47.6725 46.0435C48.7754 45.7761 49.6152 45.8977 50.2464 46.2319C50.8785 46.5663 51.333 47.1058 51.6036 47.69C51.9809 48.3135 52.1735 49.1117 52.2498 50.1004L52.6393 64.0755ZM48.9422 50.9021C48.9162 50.2587 48.7439 49.8128 48.448 49.527C48.2887 49.4036 48.052 49.3631 47.7763 49.4299C47.1941 49.571 46.9304 50.0898 46.8123 50.5409C46.7487 50.8165 46.7239 51.115 46.7365 51.4367L47.126 65.412C47.1134 66.0322 47.2931 66.5087 47.6197 66.7871C47.7793 66.9108 47.9851 66.9586 48.2608 66.8915C48.843 66.7507 49.1217 66.293 49.2247 65.7808C49.2724 65.574 49.3282 65.2681 49.331 64.8774L48.9422 50.9021Z" fill="white"/>
<path d="M54.3477 44.6843L57.6557 43.8823L58.224 64.3776L62.6037 63.316L62.7016 66.5418L55.0136 68.4052L54.3477 44.6845V44.6843Z" fill="white"/>
<path d="M63.3813 42.4951L70.9469 40.6614L71.0337 44.247L66.7762 45.279L66.9499 51.5083L70.013 50.7658L70.1214 54.5736L67.0583 55.3161L67.2375 61.8363L71.495 60.8043L71.6128 64.3829L64.0477 66.2166L63.3813 42.496V42.4951Z" fill="white"/>
<path d="M78.4387 45.2467C78.4143 44.4732 78.3674 43.607 78.1198 42.9847C77.88 42.393 77.5309 42.0224 77.0109 42.1486C76.1605 42.3874 75.916 43.3892 75.9585 44.7759C75.9906 45.5804 76.3058 46.349 76.8499 47.1265C77.3943 47.9048 78.0074 48.6983 78.6961 49.5386C79.5521 50.5332 80.2934 51.5887 80.9347 52.6352C81.5454 53.6898 81.9803 54.8191 82.0009 56.1138C82.0269 57.6997 81.8704 59.1999 81.1801 60.5042C80.4898 61.809 79.4205 62.7507 77.5827 63.1959C75.4695 63.7084 74.2357 63.1623 73.5407 62.0308C72.7849 60.9144 72.6448 59.2587 72.5671 57.4579L75.8008 56.349C75.8163 57.3525 75.8926 58.3415 76.1549 59.0252C76.4243 59.7399 76.7877 60.1717 77.4926 60.0009C78.4725 59.7634 78.7719 58.5861 78.7607 57.0616C78.7358 56.2876 78.3756 55.4654 77.8239 54.6566C77.6801 54.464 77.5288 54.2408 77.3851 54.0482C77.2413 53.8554 77.0902 53.6324 76.9464 53.4396C76.6211 53.031 76.2574 52.5995 75.8862 52.1366C75.5155 51.674 75.1447 51.2121 74.7587 50.6877C73.9567 49.6477 73.3994 48.5477 73.0263 47.4036C72.7933 46.8429 72.7375 46.2065 72.7114 45.5628C72.6605 44.2754 72.8933 42.8217 73.5984 41.5786C74.2496 40.3808 75.3043 39.3779 76.8588 38.9685C78.9033 38.4405 80.0529 39.0388 80.7401 40.1399C81.4042 41.2785 81.6442 42.8123 81.6724 44.1378L78.4387 45.2467Z" fill="white"/>
<path d="M82.2118 41.5374L82.125 37.9518L91.6807 35.6355L91.7675 39.2211L88.6437 39.9782L89.223 60.1139L85.915 60.9158L85.3364 40.7801L82.2118 41.5374Z" fill="white"/>
<path d="M67.2603 69.9644L70.5683 69.1625C72.0079 68.8137 73.4371 68.8247 74.5845 69.6841C75.732 70.543 76.5377 72.1347 76.5774 74.8544C76.6177 77.574 75.9457 79.4917 74.8879 80.8854C73.8304 82.2791 72.395 83.0496 70.9557 83.3986L71.2342 92.8842L67.9262 93.6862L67.2603 69.9656V69.9644ZM70.8457 79.8511C71.8563 79.6063 72.5166 79.2511 72.8495 78.6178C73.2215 78.0079 73.2663 77.1199 73.2386 75.7942C73.2104 74.4689 73.0948 73.587 72.709 73.063C72.3383 72.6008 71.659 72.4729 70.6481 72.718L70.8457 79.8511Z" fill="white"/>
<path d="M84.6172 89.6398L82.5971 80.0563L81.7085 80.2717L82.014 90.2708L78.7062 91.0728L78.0403 67.3521L81.3479 66.5504C85.2989 65.5927 87.0268 67.5134 87.1756 72.0266C87.2263 74.3865 86.7042 76.6574 85.4721 77.8658L87.9253 88.839L84.6172 89.641V89.6398ZM81.6417 77.0382C82.1013 76.9267 82.7063 76.7479 83.1772 76.1461C83.6477 75.5445 84.0372 74.6054 83.9891 72.9276C83.941 71.2498 83.5266 70.4725 83.0169 70.1085C82.508 69.7446 81.8956 69.8933 81.4356 70.0045L81.6417 77.0382Z" fill="white"/>
<path d="M98.2314 81.4341C98.2086 82.4144 98.0411 83.3325 97.7522 84.1498C97.4406 84.8751 97.0607 85.5846 96.4675 86.2159C95.8584 86.916 95.0296 87.3765 93.9573 87.6364C92.8856 87.8963 92.0296 87.8438 91.3525 87.4555C90.7205 87.1213 90.3045 86.6046 90.034 86.0204C89.6489 85.3664 89.4563 84.5682 89.4105 83.5719L89.021 69.5964C89.0208 68.6542 89.1651 67.7746 89.4774 66.919C89.7885 66.1935 90.1306 65.4609 90.7238 64.8294C91.317 64.1984 92.1618 63.6688 93.2646 63.4014C94.3674 63.134 95.2073 63.2556 95.8389 63.5898C96.4706 63.924 96.9251 64.4637 97.1957 65.0482C97.573 65.6712 97.7656 66.4694 97.8419 67.4583L98.2314 81.4341ZM94.5343 68.2603C94.5082 67.6168 94.3362 67.1709 94.0401 66.8852C93.8808 66.7615 93.644 66.7212 93.3683 66.788C92.7862 66.9292 92.5224 67.4482 92.4044 67.899C92.3408 68.1744 92.3159 68.4729 92.3286 68.7949L92.7181 82.7702C92.7054 83.3904 92.8852 83.8669 93.2116 84.1453C93.3714 84.269 93.5774 84.3165 93.8529 84.2497C94.435 84.1086 94.7136 83.6512 94.8173 83.1387C94.8642 82.932 94.9203 82.6263 94.9233 82.2356L94.5343 68.2603Z" fill="white"/>
<path d="M99.4724 82.8239C100.138 82.7599 100.614 82.4494 100.932 81.8852C101.102 81.6491 101.197 81.2359 101.186 80.6538L100.673 61.8669L103.981 61.0652L104.497 80.4041C104.549 81.6912 104.271 82.9607 103.522 84.0198C102.772 85.0786 101.543 85.8963 99.5531 86.2486L99.4724 82.8239Z" fill="white"/>
<path d="M106.277 60.5076L113.842 58.6738L113.93 62.2597L109.672 63.2917L109.846 69.5205L112.908 68.778L113.017 72.5861L109.954 73.3286L110.134 79.8488L114.391 78.8168L114.508 82.3952L106.943 84.2289L106.277 60.5083V60.5076Z" fill="white"/>
<path d="M124.709 71.7352L124.814 74.9915C124.791 75.9718 124.623 76.8899 124.335 77.7072C124.023 78.4325 123.643 79.142 123.05 79.7733C122.441 80.4732 121.612 80.9339 120.54 81.1938C119.468 81.4537 118.612 81.4012 117.935 81.0132C117.303 80.6787 116.887 80.1623 116.616 79.5781C116.231 78.924 116.039 78.1258 115.993 77.1298L115.604 63.1542C115.603 62.2121 115.748 61.3323 116.06 60.4769C116.371 59.7514 116.713 59.0188 117.306 58.3873C117.9 57.7563 118.744 57.2267 119.847 56.9593C120.95 56.6919 121.79 56.8135 122.421 57.1474C123.053 57.4818 123.507 58.0214 123.778 58.6058C124.155 59.229 124.348 60.0272 124.425 61.016L124.499 64.2798L121.405 65.0296L121.331 61.766C121.313 61.1531 121.133 60.6766 120.776 60.4059C120.617 60.2822 120.349 60.2495 120.012 60.3311C119.43 60.4722 119.166 60.991 119.017 61.4494C118.978 61.6865 118.922 61.9927 118.911 62.3523L119.301 76.3278C119.349 76.9332 119.529 77.4097 119.856 77.6879C120.015 77.8116 120.221 77.8589 120.497 77.7921C121.202 77.6213 121.48 77.1637 121.614 76.6439C121.662 76.4374 121.717 76.1315 121.72 75.741L121.616 72.4847L124.709 71.7352Z" fill="white"/>
<path d="M125.199 59.5269L125.113 55.9411L134.668 53.6248L134.755 57.2108L131.631 57.9681L132.21 78.1038L128.903 78.9058L128.324 58.7701L125.199 59.5269Z" fill="white"/>
<path d="M141.608 58.3462C141.583 57.5722 141.537 56.706 141.289 56.0837C141.049 55.492 140.7 55.1218 140.179 55.2479C139.329 55.4866 139.085 56.4882 139.128 57.8751C139.16 58.6794 139.474 59.448 140.019 60.2258C140.563 61.0035 141.177 61.7975 141.865 62.6378C142.721 63.6327 143.462 64.6879 144.104 65.7345C144.715 66.7886 145.149 67.9179 145.17 69.2129C145.196 70.7987 145.04 72.2989 144.349 73.6037C143.659 74.9081 142.589 75.8498 140.752 76.2952C138.638 76.8074 137.404 76.2618 136.71 75.1303C135.954 74.0137 135.814 72.358 135.736 70.5572L138.97 69.4485C138.985 70.452 139.062 71.4408 139.324 72.1247C139.593 72.8392 139.957 73.271 140.661 73.1002C141.642 72.8627 141.941 71.6853 141.93 70.1609C141.905 69.3867 141.545 68.5642 140.993 67.7559C140.849 67.5628 140.698 67.3399 140.554 67.1472C140.411 66.9546 140.26 66.7312 140.116 66.5386C139.79 66.1301 139.427 65.6985 139.056 65.2359C138.685 64.7735 138.314 64.3112 137.928 63.7872C137.126 62.747 136.569 61.647 136.196 60.5028C135.963 59.9417 135.906 59.3055 135.881 58.662C135.83 57.3746 136.062 55.921 136.767 54.6776C137.418 53.4798 138.474 52.4772 140.028 52.068C142.073 51.5397 143.222 52.1383 143.91 53.2392C144.573 54.3782 144.814 55.9118 144.842 57.2375L141.608 58.3462Z" fill="white"/>
</svg>
